<svg xmlns="http://www.w3.org/2000/svg" viewBox="0 0 100 100" preserveAspectRatio="none">
  <path fill="#FCE7D4" stroke="#D9AA88" stroke-width=".7" d="M0 4L4 0 8 3 12 0 16 3 20 0 24 3 28 0 32 3 36 0 40 3 44 0 48 3 52 0 56 3 60 0 64 3 68 0 72 3 76 0 80 3 84 0 88 3 92 0 96 3 100 4 97 8 100 12 97 16 100 20 97 24 100 28 97 32 100 36 97 40 100 44 97 48 100 52 97 56 100 60 97 64 100 68 97 72 100 76 97 80 100 84 97 88 100 92 97 96 96 100 92 97 88 100 84 97 80 100 76 97 72 100 68 97 64 100 60 97 56 100 52 97 48 100 44 97 40 100 36 97 32 100 28 97 24 100 20 97 16 100 12 97 8 100 4 97 0 96 3 92 0 88 3 84 0 80 3 76 0 72 3 68 0 64 3 60 0 56 3 52 0 48 3 44 0 40 3 36 0 32 3 28 0 24 3 20 0 16 3 12 0 8 3 4Z"/>
  <rect x="5.5" y="5.5" width="89" height="89" fill="none" stroke="#C79678" stroke-opacity=".5" stroke-width=".45" stroke-dasharray="1.5 1.6"/>
</svg>
